<svg width="24" height="24" viewBox="0 0 24 24" fill="none" xmlns="http://www.w3.org/2000/svg">
<path fill-rule="evenodd" clip-rule="evenodd" d="M16.5495 11.2748C16.5495 14.1879 14.1879 16.5495 11.2748 16.5495C8.36159 16.5495 6 14.1879 6 11.2748C6 8.36159 8.36159 6 11.2748 6C14.1879 6 16.5495 8.36159 16.5495 11.2748ZM15.4064 17.2632C14.2329 18.0744 12.8093 18.5495 11.2748 18.5495C7.25702 18.5495 4 15.2925 4 11.2748C4 7.25702 7.25702 4 11.2748 4C15.2925 4 18.5495 7.25702 18.5495 11.2748C18.5495 13.0362 17.9235 14.6514 16.8818 15.9101L20.7069 19.7353C21.0975 20.1258 21.0976 20.7591 20.7071 21.1496C20.3165 21.5401 19.6833 21.5401 19.2928 21.1496L15.4064 17.2632Z" fill="#191E24"/>
</svg>
